<svg xmlns="http://www.w3.org/2000/svg" width="1280" height="800" viewBox="0 0 1280 800">
  <defs>
    <linearGradient id="header" x1="0" y1="0" x2="1" y2="1">
      <stop stop-color="#0b4f51"/>
      <stop offset="1" stop-color="#157b7d"/>
    </linearGradient>
    <filter id="shadow" x="-20%" y="-20%" width="140%" height="140%">
      <feDropShadow dx="0" dy="12" stdDeviation="18" flood-color="#173d3f" flood-opacity=".22"/>
    </filter>
  </defs>
  <rect width="1280" height="800" fill="#edf3f2"/>
  <rect x="24" y="22" width="1232" height="756" rx="18" fill="#fff" stroke="#cedbd9"/>
  <rect x="24" y="22" width="1232" height="58" rx="18" fill="#eef3f2"/>
  <rect x="24" y="62" width="1232" height="18" fill="#eef3f2"/>
  <circle cx="54" cy="51" r="7" fill="#e06767"/>
  <circle cx="78" cy="51" r="7" fill="#e2b753"/>
  <circle cx="102" cy="51" r="7" fill="#62bb78"/>
  <rect x="154" y="38" width="710" height="28" rx="14" fill="#fff" stroke="#d4dfdd"/>
  <text x="177" y="57" fill="#587072" font-family="DejaVu Sans, sans-serif" font-size="13">https://portal.example.com/customers/atlas</text>

  <rect x="24" y="80" width="230" height="698" fill="#0f3f42"/>
  <text x="54" y="126" fill="#fff" font-family="DejaVu Sans, sans-serif" font-size="21" font-weight="700">Customer Portal</text>
  <rect x="42" y="159" width="194" height="42" rx="8" fill="#1a6265"/>
  <text x="62" y="186" fill="#fff" font-family="DejaVu Sans, sans-serif" font-size="14">Customers</text>
  <text x="62" y="238" fill="#c7dddb" font-family="DejaVu Sans, sans-serif" font-size="14">Contacts</text>
  <text x="62" y="284" fill="#c7dddb" font-family="DejaVu Sans, sans-serif" font-size="14">Tasks</text>

  <text x="292" y="136" fill="#183033" font-family="DejaVu Sans, sans-serif" font-size="28" font-weight="700">Atlas Trading</text>
  <text x="292" y="166" fill="#667b7c" font-family="DejaVu Sans, sans-serif" font-size="14">Customer profile · Athens</text>
  <rect x="292" y="204" width="492" height="204" rx="12" fill="#f8fbfa" stroke="#d6e4e1"/>
  <text x="320" y="245" fill="#183033" font-family="DejaVu Sans, sans-serif" font-size="17" font-weight="700">Primary contact</text>
  <text x="320" y="286" fill="#667b7c" font-family="DejaVu Sans, sans-serif" font-size="13">NAME</text>
  <text x="320" y="310" fill="#183033" font-family="DejaVu Sans, sans-serif" font-size="15">Maria Nikolaou</text>
  <text x="320" y="350" fill="#667b7c" font-family="DejaVu Sans, sans-serif" font-size="13">PHONE</text>
  <text x="320" y="377" fill="#116466" font-family="DejaVu Sans, sans-serif" font-size="18" text-decoration="underline">+30 210 756 3001</text>

  <g filter="url(#shadow)">
    <rect x="818" y="112" width="402" height="520" rx="14" fill="#f4f8f7"/>
    <path d="M832 112h374a14 14 0 0 1 14 14v78H818v-78a14 14 0 0 1 14-14z" fill="url(#header)"/>
    <circle cx="860" cy="158" r="22" fill="#fff"/>
    <path d="M849 145c7 15 16 24 30 29l7-8-9-7-5 4c-6-3-11-8-14-14l4-5-7-8z" fill="#116466"/>
    <text x="894" y="153" fill="#fff" font-family="DejaVu Sans, sans-serif" font-size="17" font-weight="700">UniLoud Click-to-Call</text>
    <text x="894" y="176" fill="#cde9e8" font-family="DejaVu Sans, sans-serif" font-size="12">Version 1.4.0</text>

    <rect x="836" y="224" width="366" height="132" rx="10" fill="#fff" stroke="#cde0dd"/>
    <text x="854" y="252" fill="#183033" font-family="DejaVu Sans, sans-serif" font-size="14" font-weight="700">Quick call</text>
    <rect x="854" y="270" width="238" height="44" rx="7" fill="#fff" stroke="#a9c4c1"/>
    <text x="870" y="298" fill="#183033" font-family="DejaVu Sans, sans-serif" font-size="15">+30 210 756 3001</text>
    <rect x="1100" y="270" width="84" height="44" rx="7" fill="#116466"/>
    <text x="1142" y="297" fill="#fff" text-anchor="middle" font-family="DejaVu Sans, sans-serif" font-size="14" font-weight="700">Call</text>

    <rect x="836" y="372" width="366" height="52" rx="10" fill="#fff" stroke="#cde0dd"/>
    <text x="854" y="404" fill="#183033" font-family="DejaVu Sans, sans-serif" font-size="14" font-weight="700">›  Connection settings</text>

    <rect x="836" y="440" width="366" height="112" rx="10" fill="#fff" stroke="#cde0dd"/>
    <text x="854" y="470" fill="#183033" font-family="DejaVu Sans, sans-serif" font-size="14" font-weight="700">Page phone detection</text>
    <text x="854" y="495" fill="#587072" font-family="DejaVu Sans, sans-serif" font-size="11">Disabled. Quick call and right-click</text>
    <text x="854" y="512" fill="#587072" font-family="DejaVu Sans, sans-serif" font-size="11">selection still work.</text>
    <rect x="1090" y="477" width="94" height="38" rx="7" fill="#dcefed"/>
    <text x="1137" y="501" fill="#0b4f51" text-anchor="middle" font-family="DejaVu Sans, sans-serif" font-size="12" font-weight="700">Enable</text>
    <text x="840" y="594" fill="#0b5c70" font-family="DejaVu Sans, sans-serif" font-size="12" text-decoration="underline">Privacy and setup help</text>
  </g>

  <rect x="292" y="684" width="492" height="54" rx="10" fill="#e5f3f1"/>
  <text x="318" y="717" fill="#0b4f51" font-family="DejaVu Sans, sans-serif" font-size="14" font-weight="700">Quick call and right-click work without broad page access.</text>
</svg>
